{
	"asset":{
		"generator":"Khronos glTF Blender I/O v3.6.28",
		"version":"2.0"
	},
	"scene":0,
	"scenes":[
		{
			"name":"Scene",
			"nodes":[
				6
			]
		}
	],
	"nodes":[
		{
			"mesh":0,
			"name":"Object_2",
			"translation":[
				0,
				5.841255187988281e-06,
				-5.7220458984375e-06
			]
		},
		{
			"mesh":1,
			"name":"Object_3",
			"translation":[
				0,
				5.841255187988281e-06,
				-5.7220458984375e-06
			]
		},
		{
			"mesh":2,
			"name":"Object_4",
			"translation":[
				0,
				5.841255187988281e-06,
				-5.7220458984375e-06
			]
		},
		{
			"mesh":3,
			"name":"Object_5",
			"translation":[
				0,
				5.841255187988281e-06,
				-5.7220458984375e-06
			]
		},
		{
			"mesh":4,
			"name":"Object_6",
			"translation":[
				0,
				5.841255187988281e-06,
				-5.7220458984375e-06
			]
		},
		{
			"children":[
				0,
				1,
				2,
				3,
				4
			],
			"name":"a pile of screws.stl.cleaner.materialmerger.gles",
			"translation":[
				0,
				5.841255187988281e-06,
				-5.7220458984375e-06
			]
		},
		{
			"children":[
				5
			],
			"name":"Sketchfab_model",
			"rotation":[
				-0.7025357484817505,
				0,
				0,
				0.7116484642028809
			],
			"scale":[
				0.013596029952168465,
				0.01359603088349104,
				0.01359603088349104
			],
			"translation":[
				0.8332815766334534,
				1.1269567012786865,
				-1.1798876523971558
			]
		}
	],
	"materials":[
		{
			"doubleSided":true,
			"name":"Scene_-_Root",
			"pbrMetallicRoughness":{
				"baseColorFactor":[
					0.695192277431488,
					0.695192277431488,
					0.695192277431488,
					1
				],
				"roughnessFactor":0.27852562069892883
			}
		}
	],
	"meshes":[
		{
			"name":"Object_0",
			"primitives":[
				{
					"attributes":{
						"POSITION":0,
						"NORMAL":1
					},
					"indices":2,
					"material":0
				}
			]
		},
		{
			"name":"Object_1",
			"primitives":[
				{
					"attributes":{
						"POSITION":3,
						"NORMAL":4
					},
					"indices":5,
					"material":0
				}
			]
		},
		{
			"name":"Object_2",
			"primitives":[
				{
					"attributes":{
						"POSITION":6,
						"NORMAL":7
					},
					"indices":8,
					"material":0
				}
			]
		},
		{
			"name":"Object_3",
			"primitives":[
				{
					"attributes":{
						"POSITION":9,
						"NORMAL":10
					},
					"indices":11,
					"material":0
				}
			]
		},
		{
			"name":"Object_4",
			"primitives":[
				{
					"attributes":{
						"POSITION":12,
						"NORMAL":13
					},
					"indices":14,
					"material":0
				}
			]
		}
	],
	"accessors":[
		{
			"bufferView":0,
			"componentType":5126,
			"count":66382,
			"max":[
				27.70211410522461,
				-18.91167449951172,
				9.602880477905273
			],
			"min":[
				-65.52030181884766,
				-153.59854125976562,
				-0.12836790084838867
			],
			"type":"VEC3"
		},
		{
			"bufferView":1,
			"componentType":5126,
			"count":66382,
			"type":"VEC3"
		},
		{
			"bufferView":2,
			"componentType":5125,
			"count":224901,
			"type":"SCALAR"
		},
		{
			"bufferView":3,
			"componentType":5126,
			"count":66593,
			"max":[
				77.0810317993164,
				-18.91167449951172,
				18.24479103088379
			],
			"min":[
				-59.94446563720703,
				-139.46412658691406,
				-0.033281803131103516
			],
			"type":"VEC3"
		},
		{
			"bufferView":4,
			"componentType":5126,
			"count":66593,
			"type":"VEC3"
		},
		{
			"bufferView":5,
			"componentType":5125,
			"count":226728,
			"type":"SCALAR"
		},
		{
			"bufferView":6,
			"componentType":5126,
			"count":66961,
			"max":[
				65.08821105957031,
				-43.09138870239258,
				16.248157501220703
			],
			"min":[
				-41.845001220703125,
				-155.87033081054688,
				-0.3603553771972656
			],
			"type":"VEC3"
		},
		{
			"bufferView":7,
			"componentType":5126,
			"count":66961,
			"type":"VEC3"
		},
		{
			"bufferView":8,
			"componentType":5125,
			"count":220491,
			"type":"SCALAR"
		},
		{
			"bufferView":9,
			"componentType":5126,
			"count":66705,
			"max":[
				64.0730209350586,
				-57.79835891723633,
				12.16434097290039
			],
			"min":[
				-76.10513305664062,
				-134.9915771484375,
				0.2544684410095215
			],
			"type":"VEC3"
		},
		{
			"bufferView":10,
			"componentType":5126,
			"count":66705,
			"type":"VEC3"
		},
		{
			"bufferView":11,
			"componentType":5125,
			"count":246225,
			"type":"SCALAR"
		},
		{
			"bufferView":12,
			"componentType":5126,
			"count":40660,
			"max":[
				52.46676254272461,
				-28.854415893554688,
				9.799909591674805
			],
			"min":[
				-19.292369842529297,
				-142.82696533203125,
				0.20845603942871094
			],
			"type":"VEC3"
		},
		{
			"bufferView":13,
			"componentType":5126,
			"count":40660,
			"type":"VEC3"
		},
		{
			"bufferView":14,
			"componentType":5123,
			"count":141465,
			"type":"SCALAR"
		}
	],
	"bufferViews":[
		{
			"buffer":0,
			"byteLength":796584,
			"byteOffset":0,
			"target":34962
		},
		{
			"buffer":0,
			"byteLength":796584,
			"byteOffset":796584,
			"target":34962
		},
		{
			"buffer":0,
			"byteLength":899604,
			"byteOffset":1593168,
			"target":34963
		},
		{
			"buffer":0,
			"byteLength":799116,
			"byteOffset":2492772,
			"target":34962
		},
		{
			"buffer":0,
			"byteLength":799116,
			"byteOffset":3291888,
			"target":34962
		},
		{
			"buffer":0,
			"byteLength":906912,
			"byteOffset":4091004,
			"target":34963
		},
		{
			"buffer":0,
			"byteLength":803532,
			"byteOffset":4997916,
			"target":34962
		},
		{
			"buffer":0,
			"byteLength":803532,
			"byteOffset":5801448,
			"target":34962
		},
		{
			"buffer":0,
			"byteLength":881964,
			"byteOffset":6604980,
			"target":34963
		},
		{
			"buffer":0,
			"byteLength":800460,
			"byteOffset":7486944,
			"target":34962
		},
		{
			"buffer":0,
			"byteLength":800460,
			"byteOffset":8287404,
			"target":34962
		},
		{
			"buffer":0,
			"byteLength":984900,
			"byteOffset":9087864,
			"target":34963
		},
		{
			"buffer":0,
			"byteLength":487920,
			"byteOffset":10072764,
			"target":34962
		},
		{
			"buffer":0,
			"byteLength":487920,
			"byteOffset":10560684,
			"target":34962
		},
		{
			"buffer":0,
			"byteLength":282930,
			"byteOffset":11048604,
			"target":34963
		}
	],
	"buffers":[
		{
			"byteLength":11331536,
			"uri":"scene.bin"
		}
	]
}
