{
	"asset":{
		"generator":"Khronos glTF Blender I/O v3.6.28",
		"version":"2.0"
	},
	"scene":0,
	"scenes":[
		{
			"name":"Scene",
			"nodes":[
				8
			]
		}
	],
	"nodes":[
		{
			"mesh":0,
			"name":"Object_7"
		},
		{
			"mesh":1,
			"name":"Object_8"
		},
		{
			"children":[
				0,
				1
			],
			"name":"Bolt_1",
			"translation":[
				0,
				0,
				0.03887200355529785
			]
		},
		{
			"mesh":2,
			"name":"Object_4"
		},
		{
			"mesh":3,
			"name":"Object_5"
		},
		{
			"children":[
				3,
				4
			],
			"name":"Nut_0"
		},
		{
			"children":[
				2,
				5
			],
			"name":"GLTF_SceneRootNode",
			"rotation":[
				0.70710688829422,
				0,
				0,
				0.7071066498756409
			]
		},
		{
			"children":[
				6
			],
			"name":"root"
		},
		{
			"children":[
				7
			],
			"name":"Sketchfab_model",
			"rotation":[
				-0.49870896339416504,
				-0.5012877583503723,
				-0.5012877583503723,
				0.49870893359184265
			],
			"scale":[
				36.802833557128906,
				36.80283737182617,
				36.80284118652344
			],
			"translation":[
				0.6801534295082092,
				0,
				-0.014225363731384277
			]
		}
	],
	"materials":[
		{
			"doubleSided":true,
			"name":"bolt_metal",
			"pbrMetallicRoughness":{
				"roughnessFactor":0.20000000298023224
			}
		},
		{
			"doubleSided":true,
			"name":"bolt_metal_threads",
			"normalTexture":{
				"index":0
			},
			"pbrMetallicRoughness":{
				"roughnessFactor":0.20000000298023224
			}
		}
	],
	"meshes":[
		{
			"name":"Object_2.001",
			"primitives":[
				{
					"attributes":{
						"POSITION":0,
						"NORMAL":1,
						"TEXCOORD_0":2
					},
					"indices":3,
					"material":0
				}
			]
		},
		{
			"name":"Object_3.001",
			"primitives":[
				{
					"attributes":{
						"POSITION":4,
						"NORMAL":5,
						"TEXCOORD_0":6
					},
					"indices":7,
					"material":1
				}
			]
		},
		{
			"name":"Object_0.001",
			"primitives":[
				{
					"attributes":{
						"POSITION":8,
						"NORMAL":9,
						"TEXCOORD_0":10
					},
					"indices":11,
					"material":0
				}
			]
		},
		{
			"name":"Object_1.001",
			"primitives":[
				{
					"attributes":{
						"POSITION":12,
						"NORMAL":13,
						"TEXCOORD_0":14
					},
					"indices":15,
					"material":1
				}
			]
		}
	],
	"textures":[
		{
			"sampler":0,
			"source":0
		}
	],
	"images":[
		{
			"mimeType":"image/jpeg",
			"name":"bolt_metal_threads_normal",
			"uri":"bolt_metal_threads_normal.jpg"
		}
	],
	"accessors":[
		{
			"bufferView":0,
			"componentType":5126,
			"count":235,
			"max":[
				0.012183979153633118,
				0.012183981016278267,
				0.013535421341657639
			],
			"min":[
				-0.012183981947600842,
				-0.012183981016278267,
				-0.026822449639439583
			],
			"type":"VEC3"
		},
		{
			"bufferView":1,
			"componentType":5126,
			"count":235,
			"type":"VEC3"
		},
		{
			"bufferView":2,
			"componentType":5126,
			"count":235,
			"type":"VEC2"
		},
		{
			"bufferView":3,
			"componentType":5123,
			"count":612,
			"type":"SCALAR"
		},
		{
			"bufferView":4,
			"componentType":5126,
			"count":34,
			"max":[
				0.004995065741240978,
				0.004995068069547415,
				0.00043275364441797137
			],
			"min":[
				-0.004995076917111874,
				-0.004995069932192564,
				-0.025701003149151802
			],
			"type":"VEC3"
		},
		{
			"bufferView":5,
			"componentType":5126,
			"count":34,
			"type":"VEC3"
		},
		{
			"bufferView":6,
			"componentType":5126,
			"count":34,
			"type":"VEC2"
		},
		{
			"bufferView":7,
			"componentType":5123,
			"count":96,
			"type":"SCALAR"
		},
		{
			"bufferView":8,
			"componentType":5126,
			"count":219,
			"max":[
				0.012183981016278267,
				0.012183980084955692,
				-1.9709020193658944e-07
			],
			"min":[
				-0.012183981016278267,
				-0.012183981947600842,
				-0.012565912678837776
			],
			"type":"VEC3"
		},
		{
			"bufferView":9,
			"componentType":5126,
			"count":219,
			"type":"VEC3"
		},
		{
			"bufferView":10,
			"componentType":5126,
			"count":219,
			"type":"VEC2"
		},
		{
			"bufferView":11,
			"componentType":5123,
			"count":486,
			"type":"SCALAR"
		},
		{
			"bufferView":12,
			"componentType":5126,
			"count":34,
			"max":[
				0.0051682800985872746,
				0.005168278701603413,
				-1.9943692564083904e-07
			],
			"min":[
				-0.005168284755200148,
				-0.005168280564248562,
				-0.012565912678837776
			],
			"type":"VEC3"
		},
		{
			"bufferView":13,
			"componentType":5126,
			"count":34,
			"type":"VEC3"
		},
		{
			"bufferView":14,
			"componentType":5126,
			"count":34,
			"type":"VEC2"
		},
		{
			"bufferView":15,
			"componentType":5123,
			"count":96,
			"type":"SCALAR"
		}
	],
	"bufferViews":[
		{
			"buffer":0,
			"byteLength":2820,
			"byteOffset":0,
			"target":34962
		},
		{
			"buffer":0,
			"byteLength":2820,
			"byteOffset":2820,
			"target":34962
		},
		{
			"buffer":0,
			"byteLength":1880,
			"byteOffset":5640,
			"target":34962
		},
		{
			"buffer":0,
			"byteLength":1224,
			"byteOffset":7520,
			"target":34963
		},
		{
			"buffer":0,
			"byteLength":408,
			"byteOffset":8744,
			"target":34962
		},
		{
			"buffer":0,
			"byteLength":408,
			"byteOffset":9152,
			"target":34962
		},
		{
			"buffer":0,
			"byteLength":272,
			"byteOffset":9560,
			"target":34962
		},
		{
			"buffer":0,
			"byteLength":192,
			"byteOffset":9832,
			"target":34963
		},
		{
			"buffer":0,
			"byteLength":2628,
			"byteOffset":10024,
			"target":34962
		},
		{
			"buffer":0,
			"byteLength":2628,
			"byteOffset":12652,
			"target":34962
		},
		{
			"buffer":0,
			"byteLength":1752,
			"byteOffset":15280,
			"target":34962
		},
		{
			"buffer":0,
			"byteLength":972,
			"byteOffset":17032,
			"target":34963
		},
		{
			"buffer":0,
			"byteLength":408,
			"byteOffset":18004,
			"target":34962
		},
		{
			"buffer":0,
			"byteLength":408,
			"byteOffset":18412,
			"target":34962
		},
		{
			"buffer":0,
			"byteLength":272,
			"byteOffset":18820,
			"target":34962
		},
		{
			"buffer":0,
			"byteLength":192,
			"byteOffset":19092,
			"target":34963
		}
	],
	"samplers":[
		{
			"magFilter":9729,
			"minFilter":9987
		}
	],
	"buffers":[
		{
			"byteLength":19284,
			"uri":"scene.bin"
		}
	]
}
